<svg xmlns="http://www.w3.org/2000/svg" width="502.5" height="502.5"><g fill="#fff"><path d="M251.25 127.9c17.7 0 32.78-6.23 45.25-18.7 12.47-12.46 18.7-27.55 18.7-45.25s-6.23-32.78-18.7-45.25C284.03 6.23 268.95 0 251.25 0s-32.8 6.23-45.26 18.7c-12.46 12.47-18.7 27.55-18.7 45.25s6.24 32.8 18.7 45.26c12.47 12.46 27.56 18.7 45.26 18.7zM381.44 153.03c-10.67-10.66-23.6-15.99-38.83-15.99H159.9c-15.23 0-28.17 5.33-38.83 15.99-10.66 10.66-15.99 23.6-15.99 38.83v118.78c0 7.6 2.66 14.08 8 19.4s11.8 8 19.4 8c7.62 0 14.1-2.67 19.43-8 5.32-5.33 7.99-11.8 7.99-19.4v-100.5h18.27V470.5c0 8.76 3.14 16.28 9.42 22.56 6.28 6.28 13.8 9.42 22.56 9.42s16.28-3.14 22.55-9.42c6.28-6.28 9.42-13.8 9.42-22.56V338.04h18.27v132.48c0 8.75 3.15 16.27 9.43 22.55 6.27 6.29 13.8 9.43 22.55 9.43 8.76 0 16.28-3.14 22.56-9.43 6.28-6.28 9.42-13.8 9.42-22.55V210.13h18.27v100.5c0 7.62 2.67 14.09 8 19.41 5.32 5.33 11.8 8 19.4 8 7.62 0 14.1-2.67 19.42-8 5.33-5.33 8-11.8 8-19.41V191.86c0-15.23-5.33-28.17-16-38.83z"/></g></svg>