<svg height="511pt" viewBox="1 -19 512 511" width="511pt" xmlns="http://www.w3.org/2000/svg"><path d="M111.4 329.17c-18.3 0-33.2 14.9-33.2 33.2 0 18.31 14.9 33.2 33.2 33.2 18.3 0 33.2-14.89 33.2-33.2 0-18.3-14.9-33.2-33.2-33.2zm10.6 43.8a15.1 15.1 0 0 1-10.6 4.4c-3.95 0-7.82-1.6-10.6-4.4a15.12 15.12 0 0 1-4.4-10.6c0-3.94 1.6-7.82 4.4-10.6a15.11 15.11 0 0 1 10.6-4.4c3.95 0 7.81 1.6 10.6 4.4 2.8 2.78 4.4 6.66 4.4 10.6s-1.6 7.81-4.4 10.6zm0 0M255.95 78.71c-5.78 0-11.5 1.54-16.55 4.45a32.99 32.99 0 0 0-15.47 20.16 33 33 0 0 0 3.32 25.2 33.17 33.17 0 0 0 45.35 12.15 32.98 32.98 0 0 0 15.47-20.16 32.98 32.98 0 0 0-3.32-25.2 33.33 33.33 0 0 0-28.8-16.6zm10.65 43.81a15.08 15.08 0 0 1-10.6 4.4 15.1 15.1 0 0 1-10.6-4.4 15.1 15.1 0 0 1-4.4-10.6c0-3.96 1.6-7.81 4.4-10.62a15.1 15.1 0 0 1 10.6-4.39c3.95 0 7.81 1.6 10.6 4.4a15.1 15.1 0 0 1 4.4 10.6c0 3.95-1.6 7.82-4.4 10.61zm0 0M400.6 329.17c-18.3 0-33.2 14.9-33.2 33.2 0 18.31 14.9 33.2 33.2 33.2 18.3 0 33.2-14.89 33.2-33.2 0-18.3-14.9-33.2-33.2-33.2zm10.6 43.8a15.09 15.09 0 0 1-10.6 4.4c-3.95 0-7.81-1.6-10.6-4.4-2.8-2.79-4.4-6.65-4.4-10.6s1.6-7.82 4.4-10.6c2.79-2.8 6.65-4.4 10.6-4.4 3.95 0 7.81 1.6 10.6 4.4s4.4 6.66 4.4 10.6c0 3.95-1.6 7.81-4.4 10.6zm0 0M256 257.73a21.17 21.17 0 0 0-21.15 21.15A21.17 21.17 0 0 0 256 300.03a21.17 21.17 0 0 0 21.15-21.15A21.17 21.17 0 0 0 256 257.73zm0 0"/><path d="M400.83 250.97h-.23a55.63 55.63 0 0 1-55.57-55.57c0-9.2 2.3-18.27 6.64-26.33 5.2-8.73 9.23-18.23 11.94-28.32a110.64 110.64 0 0 0-11.13-84.53A111.78 111.78 0 0 0 255.9.5c-19.45 0-38.68 5.16-55.6 14.94a110.66 110.66 0 0 0-51.91 67.64 110.66 110.66 0 0 0 10.9 84.12c.07.15.14.3.22.43a55.48 55.48 0 0 1 7.45 27.77 55.63 55.63 0 0 1-55.57 55.57h-.23C49.85 251.1 0 301.03 0 362.38c0 61.43 49.97 111.4 111.4 111.4 41.12 0 77.1-22.4 96.4-55.63.15-.21.29-.43.43-.66a55.54 55.54 0 0 1 47.7-27.2 55.85 55.85 0 0 1 48.25 27.9c.18.32.37.62.57.91 19.44 32.71 55.12 54.68 95.85 54.68 61.43 0 111.4-49.97 111.4-111.4 0-61.35-49.85-111.27-111.17-111.4zM111.4 425.57c-34.85 0-63.2-28.35-63.2-63.2s28.35-63.2 63.2-63.2a63.27 63.27 0 0 1 63.2 63.2 63.27 63.27 0 0 1-63.2 63.2zM256 330.04a51.2 51.2 0 0 1-51.15-51.15c0-28.21 22.95-51.16 51.15-51.16s51.15 22.95 51.15 51.16A51.2 51.2 0 0 1 256 330.04zm61.05-201.77a62.78 62.78 0 0 1-29.45 38.38 63.2 63.2 0 0 1-31.56 8.48 63.41 63.41 0 0 1-54.77-31.61 62.78 62.78 0 0 1-6.32-47.96 62.8 62.8 0 0 1 29.45-38.38 63.2 63.2 0 0 1 31.55-8.47 63.42 63.42 0 0 1 54.78 31.6 62.8 62.8 0 0 1 6.32 47.96zm83.55 297.3c-34.85 0-63.2-28.35-63.2-63.2s28.35-63.2 63.2-63.2 63.2 28.35 63.2 63.2-28.35 63.2-63.2 63.2zm0 0"/></svg>