<svg height="511pt" viewBox="1 -19 511.999 511" width="511pt" xmlns="http://www.w3.org/2000/svg"><path d="m111.398438 329.171875c-18.304688 0-33.199219 14.894531-33.199219 33.199219 0 18.308594 14.894531 33.199218 33.199219 33.199218 18.308593 0 33.199218-14.890624 33.199218-33.199218.003906-18.304688-14.890625-33.199219-33.199218-33.199219zm10.605468 43.804687c-2.789062 2.789063-6.652344 4.390626-10.601562 4.390626-3.949219 0-7.820313-1.601563-10.609375-4.390626-2.789063-2.792968-4.390625-6.660156-4.390625-10.601562 0-3.949219 1.601562-7.820312 4.390625-10.609375 2.789062-2.789063 6.660156-4.390625 10.609375-4.390625 3.949218 0 7.8125 1.601562 10.601562 4.390625 2.800782 2.789063 4.398438 6.660156 4.398438 10.609375s-1.597656 7.808594-4.398438 10.601562zm0 0"/><path d="m255.953125 78.710938c-5.78125 0-11.507813 1.539062-16.554687 4.453124-7.679688 4.433594-13.171876 11.59375-15.46875 20.160157-2.292969 8.566406-1.117188 17.511719 3.316406 25.191406 5.917968 10.246094 16.949218 16.605469 28.796875 16.605469 5.78125 0 11.507812-1.539063 16.554687-4.453125 7.683594-4.433594 13.175782-11.59375 15.472656-20.160157 2.292969-8.5625 1.117188-17.511718-3.320312-25.191406-5.910156-10.242187-16.945312-16.605468-28.796875-16.605468zm10.648437 43.8125c-2.789062 2.792968-6.65625 4.390624-10.597656 4.390624-3.949218 0-7.820312-1.597656-10.609375-4.390624-2.792969-2.789063-4.390625-6.660157-4.390625-10.609376 0-3.949218 1.597656-7.808593 4.390625-10.609374 2.789063-2.789063 6.648438-4.390626 10.609375-4.390626 3.949219 0 7.808594 1.601563 10.597656 4.390626 2.800782 2.800781 4.402344 6.660156 4.402344 10.609374 0 3.949219-1.601562 7.820313-4.402344 10.609376zm0 0"/><path d="m400.601562 329.171875c-18.308593 0-33.203124 14.894531-33.203124 33.199219 0 18.308594 14.894531 33.199218 33.203124 33.199218 18.304688 0 33.199219-14.890624 33.199219-33.199218 0-18.304688-14.894531-33.199219-33.199219-33.199219zm10.601563 43.804687c-2.789063 2.789063-6.648437 4.390626-10.601563 4.390626-3.949218 0-7.816406-1.601563-10.609374-4.390626-2.789063-2.792968-4.390626-6.652343-4.390626-10.601562s1.601563-7.820312 4.390626-10.609375c2.792968-2.789063 6.660156-4.390625 10.609374-4.390625 3.953126 0 7.8125 1.601562 10.601563 4.390625s4.390625 6.660156 4.390625 10.609375c0 3.941406-1.601562 7.808594-4.390625 10.601562zm0 0"/><path d="m256 257.734375c-11.664062 0-21.148438 9.488281-21.148438 21.148437 0 11.664063 9.484376 21.148438 21.148438 21.148438 11.660156 0 21.148438-9.484375 21.148438-21.148438 0-11.660156-9.488282-21.148437-21.148438-21.148437zm0 0"/><path d="m400.832031 250.972656c-.078125 0-.152343-.007812-.234375-.007812-30.640625 0-55.570312-24.929688-55.570312-55.566406 0-9.191407 2.300781-18.269532 6.644531-26.324219 5.199219-8.734375 9.230469-18.238281 11.933594-28.328125 7.703125-28.742188 3.75-58.761719-11.128907-84.527344-19.839843-34.371094-56.839843-55.71875-96.566406-55.71875-19.449218 0-38.679687 5.164062-55.609375 14.941406-25.769531 14.878906-44.203125 38.898438-51.902343 67.640625-7.660157 28.59375-3.785157 58.445313 10.898437 84.121094.074219.144531.144531.289063.226563.429687 4.875 8.421876 7.449218 18.019532 7.449218 27.765626 0 30.640624-24.929687 55.570312-55.570312 55.570312-.078125 0-.15625.003906-.234375.007812-61.320313.125-111.167969 50.046876-111.167969 111.394532 0 61.425781 49.972656 111.398437 111.398438 111.398437 41.121093 0 77.101562-22.394531 96.402343-55.625.144531-.21875.289063-.4375.425781-.664062 4.835938-8.167969 11.746094-14.996094 19.984376-19.753907 8.449218-4.875 18.03125-7.453124 27.710937-7.453124 19.621094 0 37.976563 10.476562 47.929687 27.347656.105469.1875.214844.375.324219.5625.183594.3125.375.613281.578125.90625 19.433594 32.710937 55.117188 54.683594 95.847656 54.683594 61.425782 0 111.398438-49.976563 111.398438-111.402344 0-61.347656-49.847656-111.269532-111.167969-111.398438zm-289.433593 174.597656c-34.847657 0-63.199219-28.351562-63.199219-63.199218s28.351562-63.199219 63.199219-63.199219c34.851562 0 63.199218 28.351563 63.199218 63.199219.003906 34.847656-28.347656 63.199218-63.199218 63.199218zm144.601562-95.535156c-28.203125 0-51.148438-22.945312-51.148438-51.148437 0-28.207031 22.945313-51.152344 51.148438-51.152344s51.148438 22.945313 51.148438 51.152344c0 28.203125-22.945313 51.148437-51.148438 51.148437zm61.046875-201.761718c-4.367187 16.304687-14.828125 29.933593-29.449219 38.375-9.601562 5.542968-20.511718 8.476562-31.554687 8.476562-22.53125 0-43.519531-12.113281-54.773438-31.609375-8.441406-14.617187-10.683593-31.648437-6.316406-47.953125 4.371094-16.308594 14.828125-29.9375 29.449219-38.378906 9.601562-5.542969 20.511718-8.472656 31.550781-8.472656 22.535156 0 43.527344 12.109374 54.78125 31.605468 8.4375 14.621094 10.683594 31.652344 6.3125 47.957032zm83.554687 297.296874c-34.851562 0-63.203124-28.351562-63.203124-63.199218s28.355468-63.199219 63.203124-63.199219c34.847657 0 63.199219 28.351563 63.199219 63.199219s-28.351562 63.199218-63.199219 63.199218zm0 0"/></svg>