<?xml version="1.0"?>
<svg xmlns="http://www.w3.org/2000/svg" id="Layer_1" data-name="Layer 1" viewBox="0 0 512 512" width="512" height="512"><title>Toilet Side</title><rect x="44" y="53" width="102" height="19"/><path d="M133,261V87H57V261Z"/><path d="M459.78,262H197.862a8.5,8.5,0,1,0,0,17H459.78a8.5,8.5,0,1,0,0-17Z"/><rect x="147" y="116" width="22" height="24"/><path d="M281.489,399.809a129.044,129.044,0,0,1-45.5-25.767c-23.385-20.693-36.969-49.429-38.7-81.343A22.624,22.624,0,0,1,175.851,275H51v69.158l17.551,10.53C96.388,371.7,114,402.534,114,435.157V451H284.316c2.968-12,3.09-21.6.015-36.982Z"/><path d="M328.821,393.329c65.625,0,113.931-42.329,117.5-100.329h-235C214.891,351,263.2,393.329,328.821,393.329Z"/><path d="M361.066,403.921a158.547,158.547,0,0,1-64.489.055l1.483,7.487c3.656,18.286,3.5,30.537-1.322,47.537h64.167c-4.822-17-4.978-29.245-1.321-47.528Z"/></svg>
