<svg xmlns="http://www.w3.org/2000/svg" data-name="Layer 1" width="512" height="512"><path d="M44 53h102v19H44zM133 261V87H57v174zM459.78 262H197.86a8.5 8.5 0 1 0 0 17h261.92a8.5 8.5 0 1 0 0-17zM147 116h22v24h-22zM281.49 399.8a129.04 129.04 0 0 1-45.5-25.76c-23.39-20.7-36.97-49.43-38.7-81.34a22.62 22.62 0 0 1-21.44-17.7H51v69.16l17.55 10.53C96.4 371.7 114 402.53 114 435.16V451h170.32c2.96-12 3.09-21.6.01-36.98z"/><path d="M328.82 393.33c65.63 0 113.93-42.33 117.5-100.33h-235c3.57 58 51.88 100.33 117.5 100.33zM361.07 403.92a158.55 158.55 0 0 1-64.5.06l1.49 7.48c3.66 18.29 3.5 30.54-1.32 47.54h64.16c-4.82-17-4.97-29.25-1.32-47.53z"/></svg>