<svg xmlns="http://www.w3.org/2000/svg" viewBox="0 0 491.98 491.98"><g fill="#fff"><path d="M225.31 96.96a48.5 48.5 0 1 0-.03-96.94 48.5 48.5 0 0 0 .03 96.94zM300.23 371.69c-12.88 44.73-54.12 77.58-102.94 77.58-59.13 0-107.21-48.08-107.21-107.2 0-43.75 26.4-81.4 64.06-98.05v-45.44c-61.69 18.58-106.76 75.85-106.76 143.5 0 82.65 67.25 149.9 149.9 149.9 60.24 0 112.17-35.8 135.97-87.17l-16.92-33.26-16.1.14z"/><path d="M441.48 429.24l-64.94-127.67A28.43 28.43 0 0 0 351.18 286H268v-18.97h71.58c7.15 0 13.15-3.73 17.03-9.11 2.53-3.51 4.32-7.58 4.32-12.24a21.35 21.35 0 0 0-21.35-21.35H268V160c0-17.7-13.12-42.7-42.7-42.7a42.7 42.7 0 0 0-42.7 42.7v139.37a43.56 43.56 0 0 0 43.56 43.56h107.55l57.03 112.12a28.45 28.45 0 0 0 38.27 12.47 28.43 28.43 0 0 0 12.46-38.28z"/></g></svg>