<svg xmlns="http://www.w3.org/2000/svg" width="502.48" height="502.48"><g fill="#fff"><path d="M251.24 127.9c17.7 0 32.78-6.23 45.25-18.7 12.48-12.46 18.7-27.55 18.7-45.25s-6.22-32.78-18.7-45.25C284.02 6.23 268.94 0 251.24 0s-32.79 6.23-45.26 18.7-18.7 27.55-18.7 45.25 6.24 32.8 18.7 45.26c12.47 12.46 27.56 18.7 45.26 18.7zM429.4 277.22L356.3 167.6c-13.89-20.37-30.63-30.55-50.24-30.55H196.42c-19.6 0-36.35 10.18-50.25 30.55L73.1 277.22a26.7 26.7 0 0 0-4.58 15.13c0 7.62 2.67 14.1 8 19.42 5.33 5.33 11.8 7.99 19.41 7.99 9.7 0 17.32-4.1 22.84-12.28l64.81-97.35h12.85v37.68L125.9 365.15c-1.71 2.86-2.57 6-2.57 9.42 0 4.95 1.81 9.23 5.43 12.85a17.57 17.57 0 0 0 12.85 5.42h54.8v77.66c0 8.76 3.15 16.28 9.43 22.56 6.28 6.28 13.8 9.42 22.56 9.42h45.67c8.77 0 16.28-3.14 22.57-9.42 6.27-6.29 9.42-13.8 9.42-22.56v-77.66h54.82c4.94 0 9.22-1.8 12.84-5.42a17.57 17.57 0 0 0 5.43-12.85 18 18 0 0 0-2.57-9.42l-70.52-117.34v-37.68h12.85l64.81 97.36c5.52 8.18 13.13 12.27 22.85 12.27 7.6 0 14.07-2.66 19.4-8s8-11.79 8-19.4c0-5.52-1.53-10.57-4.57-15.14z"/></g></svg>